<svg xmlns="http://www.w3.org/2000/svg" xmlns:xlink="http://www.w3.org/1999/xlink" width="1920" zoomAndPan="magnify" viewBox="0 0 1440 809.999993" height="1080" preserveAspectRatio="xMidYMid meet" version="1.0"><defs><g/><clipPath id="0963aa4994"><path d="M 27.246094 26.828125 L 316.96875 26.828125 L 316.96875 113.171875 L 27.246094 113.171875 Z M 27.246094 26.828125 " clip-rule="nonzero"/></clipPath><clipPath id="8458d65a15"><path d="M 36.246094 26.828125 L 307.753906 26.828125 C 310.140625 26.828125 312.429688 27.777344 314.117188 29.464844 C 315.804688 31.152344 316.753906 33.441406 316.753906 35.828125 L 316.753906 104.171875 C 316.753906 106.558594 315.804688 108.847656 314.117188 110.535156 C 312.429688 112.222656 310.140625 113.171875 307.753906 113.171875 L 36.246094 113.171875 C 33.859375 113.171875 31.570312 112.222656 29.882812 110.535156 C 28.195312 108.847656 27.246094 106.558594 27.246094 104.171875 L 27.246094 35.828125 C 27.246094 33.441406 28.195312 31.152344 29.882812 29.464844 C 31.570312 27.777344 33.859375 26.828125 36.246094 26.828125 Z M 36.246094 26.828125 " clip-rule="nonzero"/></clipPath><clipPath id="a86b8e451d"><path d="M 0.246094 0.828125 L 289.628906 0.828125 L 289.628906 87.171875 L 0.246094 87.171875 Z M 0.246094 0.828125 " clip-rule="nonzero"/></clipPath><clipPath id="f8c1c25ab1"><path d="M 9.246094 0.828125 L 280.753906 0.828125 C 283.140625 0.828125 285.429688 1.777344 287.117188 3.464844 C 288.804688 5.152344 289.753906 7.441406 289.753906 9.828125 L 289.753906 78.171875 C 289.753906 80.558594 288.804688 82.847656 287.117188 84.535156 C 285.429688 86.222656 283.140625 87.171875 280.753906 87.171875 L 9.246094 87.171875 C 6.859375 87.171875 4.570312 86.222656 2.882812 84.535156 C 1.195312 82.847656 0.246094 80.558594 0.246094 78.171875 L 0.246094 9.828125 C 0.246094 7.441406 1.195312 5.152344 2.882812 3.464844 C 4.570312 1.777344 6.859375 0.828125 9.246094 0.828125 Z M 9.246094 0.828125 " clip-rule="nonzero"/></clipPath><linearGradient x1="0.00277962" gradientTransform="matrix(0.337276, 0, 0, 0.337276, 0.245876, 0.828596)" y1="128" x2="858.002818" gradientUnits="userSpaceOnUse" y2="128" id="d197fe13b1"><stop stop-opacity="1" stop-color="rgb(0%, 31.369019%, 78.819275%)" offset="0"/><stop stop-opacity="1" stop-color="rgb(0.0289917%, 31.246948%, 78.871155%)" offset="0.0078125"/><stop stop-opacity="1" stop-color="rgb(0.0869751%, 31.001282%, 78.974915%)" offset="0.015625"/><stop stop-opacity="1" stop-color="rgb(0.144958%, 30.755615%, 79.0802%)" offset="0.0234375"/><stop stop-opacity="1" stop-color="rgb(0.202942%, 30.511475%, 79.18396%)" offset="0.03125"/><stop stop-opacity="1" stop-color="rgb(0.260925%, 30.265808%, 79.28772%)" offset="0.0390625"/><stop stop-opacity="1" stop-color="rgb(0.318909%, 30.021667%, 79.391479%)" offset="0.046875"/><stop stop-opacity="1" stop-color="rgb(0.376892%, 29.776001%, 79.496765%)" offset="0.0546875"/><stop stop-opacity="1" stop-color="rgb(0.434875%, 29.53186%, 79.600525%)" offset="0.0625"/><stop stop-opacity="1" stop-color="rgb(0.494385%, 29.286194%, 79.704285%)" offset="0.0703125"/><stop stop-opacity="1" stop-color="rgb(0.552368%, 29.042053%, 79.808044%)" offset="0.078125"/><stop stop-opacity="1" stop-color="rgb(0.610352%, 28.796387%, 79.91333%)" offset="0.0859375"/><stop stop-opacity="1" stop-color="rgb(0.668335%, 28.552246%, 80.01709%)" offset="0.09375"/><stop stop-opacity="1" stop-color="rgb(0.726318%, 28.30658%, 80.12085%)" offset="0.101562"/><stop stop-opacity="1" stop-color="rgb(0.784302%, 28.060913%, 80.226135%)" offset="0.109375"/><stop stop-opacity="1" stop-color="rgb(0.842285%, 27.816772%, 80.329895%)" offset="0.117188"/><stop stop-opacity="1" stop-color="rgb(0.900269%, 27.571106%, 80.433655%)" offset="0.125"/><stop stop-opacity="1" stop-color="rgb(0.959778%, 27.326965%, 80.537415%)" offset="0.132812"/><stop stop-opacity="1" stop-color="rgb(1.017761%, 27.081299%, 80.6427%)" offset="0.140625"/><stop stop-opacity="1" stop-color="rgb(1.075745%, 26.837158%, 80.74646%)" offset="0.148438"/><stop stop-opacity="1" stop-color="rgb(1.133728%, 26.591492%, 80.85022%)" offset="0.15625"/><stop stop-opacity="1" stop-color="rgb(1.191711%, 26.347351%, 80.953979%)" offset="0.164062"/><stop stop-opacity="1" stop-color="rgb(1.249695%, 26.101685%, 81.059265%)" offset="0.171875"/><stop stop-opacity="1" stop-color="rgb(1.307678%, 25.857544%, 81.163025%)" offset="0.179688"/><stop stop-opacity="1" stop-color="rgb(1.365662%, 25.611877%, 81.266785%)" offset="0.1875"/><stop stop-opacity="1" stop-color="rgb(1.425171%, 25.366211%, 81.37207%)" offset="0.195312"/><stop stop-opacity="1" stop-color="rgb(1.483154%, 25.12207%, 81.47583%)" offset="0.203125"/><stop stop-opacity="1" stop-color="rgb(1.541138%, 24.876404%, 81.57959%)" offset="0.210938"/><stop stop-opacity="1" stop-color="rgb(1.599121%, 24.632263%, 81.68335%)" offset="0.21875"/><stop stop-opacity="1" stop-color="rgb(1.657104%, 24.386597%, 81.788635%)" offset="0.226562"/><stop stop-opacity="1" stop-color="rgb(1.715088%, 24.142456%, 81.892395%)" offset="0.234375"/><stop stop-opacity="1" stop-color="rgb(1.773071%, 23.89679%, 81.996155%)" offset="0.242188"/><stop stop-opacity="1" stop-color="rgb(1.831055%, 23.652649%, 82.099915%)" offset="0.25"/><stop stop-opacity="1" stop-color="rgb(1.890564%, 23.406982%, 82.2052%)" offset="0.257812"/><stop stop-opacity="1" stop-color="rgb(1.948547%, 23.162842%, 82.30896%)" offset="0.265625"/><stop stop-opacity="1" stop-color="rgb(2.006531%, 22.917175%, 82.41272%)" offset="0.273438"/><stop stop-opacity="1" stop-color="rgb(2.064514%, 22.671509%, 82.518005%)" offset="0.28125"/><stop stop-opacity="1" stop-color="rgb(2.122498%, 22.427368%, 82.621765%)" offset="0.289063"/><stop stop-opacity="1" stop-color="rgb(2.180481%, 22.181702%, 82.725525%)" offset="0.296875"/><stop stop-opacity="1" stop-color="rgb(2.238464%, 21.937561%, 82.829285%)" offset="0.304688"/><stop stop-opacity="1" stop-color="rgb(2.296448%, 21.691895%, 82.93457%)" offset="0.3125"/><stop stop-opacity="1" stop-color="rgb(2.355957%, 21.447754%, 83.03833%)" offset="0.320313"/><stop stop-opacity="1" stop-color="rgb(2.41394%, 21.202087%, 83.14209%)" offset="0.328125"/><stop stop-opacity="1" stop-color="rgb(2.471924%, 20.957947%, 83.24585%)" offset="0.335938"/><stop stop-opacity="1" stop-color="rgb(2.529907%, 20.71228%, 83.351135%)" offset="0.34375"/><stop stop-opacity="1" stop-color="rgb(2.587891%, 20.46814%, 83.454895%)" offset="0.351563"/><stop stop-opacity="1" stop-color="rgb(2.645874%, 20.222473%, 83.558655%)" offset="0.359375"/><stop stop-opacity="1" stop-color="rgb(2.703857%, 19.976807%, 83.66394%)" offset="0.367188"/><stop stop-opacity="1" stop-color="rgb(2.763367%, 19.732666%, 83.7677%)" offset="0.375"/><stop stop-opacity="1" stop-color="rgb(2.82135%, 19.487%, 83.87146%)" offset="0.382812"/><stop stop-opacity="1" stop-color="rgb(2.879333%, 19.242859%, 83.97522%)" offset="0.390625"/><stop stop-opacity="1" stop-color="rgb(2.937317%, 18.997192%, 84.080505%)" offset="0.398438"/><stop stop-opacity="1" stop-color="rgb(2.9953%, 18.753052%, 84.184265%)" offset="0.40625"/><stop stop-opacity="1" stop-color="rgb(3.053284%, 18.507385%, 84.288025%)" offset="0.414062"/><stop stop-opacity="1" stop-color="rgb(3.111267%, 18.263245%, 84.391785%)" offset="0.421875"/><stop stop-opacity="1" stop-color="rgb(3.16925%, 18.017578%, 84.49707%)" offset="0.429688"/><stop stop-opacity="1" stop-color="rgb(3.22876%, 17.771912%, 84.60083%)" offset="0.4375"/><stop stop-opacity="1" stop-color="rgb(3.286743%, 17.527771%, 84.70459%)" offset="0.445312"/><stop stop-opacity="1" stop-color="rgb(3.344727%, 17.282104%, 84.80835%)" offset="0.453125"/><stop stop-opacity="1" stop-color="rgb(3.40271%, 17.037964%, 84.913635%)" offset="0.460938"/><stop stop-opacity="1" stop-color="rgb(3.460693%, 16.792297%, 85.017395%)" offset="0.46875"/><stop stop-opacity="1" stop-color="rgb(3.518677%, 16.548157%, 85.121155%)" offset="0.476562"/><stop stop-opacity="1" stop-color="rgb(3.57666%, 16.30249%, 85.22644%)" offset="0.484375"/><stop stop-opacity="1" stop-color="rgb(3.634644%, 16.05835%, 85.3302%)" offset="0.492188"/><stop stop-opacity="1" stop-color="rgb(3.694153%, 15.812683%, 85.43396%)" offset="0.5"/><stop stop-opacity="1" stop-color="rgb(3.752136%, 15.568542%, 85.53772%)" offset="0.507812"/><stop stop-opacity="1" stop-color="rgb(3.81012%, 15.322876%, 85.643005%)" offset="0.515625"/><stop stop-opacity="1" stop-color="rgb(3.868103%, 15.077209%, 85.746765%)" offset="0.523438"/><stop stop-opacity="1" stop-color="rgb(3.926086%, 14.833069%, 85.850525%)" offset="0.53125"/><stop stop-opacity="1" stop-color="rgb(3.98407%, 14.587402%, 85.954285%)" offset="0.539062"/><stop stop-opacity="1" stop-color="rgb(4.042053%, 14.343262%, 86.05957%)" offset="0.546875"/><stop stop-opacity="1" stop-color="rgb(4.100037%, 14.097595%, 86.16333%)" offset="0.554688"/><stop stop-opacity="1" stop-color="rgb(4.159546%, 13.853455%, 86.26709%)" offset="0.5625"/><stop stop-opacity="1" stop-color="rgb(4.217529%, 13.607788%, 86.372375%)" offset="0.570312"/><stop stop-opacity="1" stop-color="rgb(4.275513%, 13.363647%, 86.476135%)" offset="0.578125"/><stop stop-opacity="1" stop-color="rgb(4.333496%, 13.117981%, 86.579895%)" offset="0.585938"/><stop stop-opacity="1" stop-color="rgb(4.391479%, 12.87384%, 86.683655%)" offset="0.59375"/><stop stop-opacity="1" stop-color="rgb(4.449463%, 12.628174%, 86.78894%)" offset="0.601563"/><stop stop-opacity="1" stop-color="rgb(4.507446%, 12.382507%, 86.8927%)" offset="0.609375"/><stop stop-opacity="1" stop-color="rgb(4.56543%, 12.138367%, 86.99646%)" offset="0.617188"/><stop stop-opacity="1" stop-color="rgb(4.624939%, 11.8927%, 87.10022%)" offset="0.625"/><stop stop-opacity="1" stop-color="rgb(4.682922%, 11.64856%, 87.205505%)" offset="0.632813"/><stop stop-opacity="1" stop-color="rgb(4.740906%, 11.402893%, 87.309265%)" offset="0.640625"/><stop stop-opacity="1" stop-color="rgb(4.798889%, 11.158752%, 87.413025%)" offset="0.648438"/><stop stop-opacity="1" stop-color="rgb(4.856873%, 10.913086%, 87.518311%)" offset="0.65625"/><stop stop-opacity="1" stop-color="rgb(4.914856%, 10.668945%, 87.62207%)" offset="0.664062"/><stop stop-opacity="1" stop-color="rgb(4.972839%, 10.423279%, 87.72583%)" offset="0.671875"/><stop stop-opacity="1" stop-color="rgb(5.032349%, 10.179138%, 87.82959%)" offset="0.679688"/><stop stop-opacity="1" stop-color="rgb(5.090332%, 9.933472%, 87.934875%)" offset="0.6875"/><stop stop-opacity="1" stop-color="rgb(5.148315%, 9.687805%, 88.038635%)" offset="0.695312"/><stop stop-opacity="1" stop-color="rgb(5.206299%, 9.443665%, 88.142395%)" offset="0.703125"/><stop stop-opacity="1" stop-color="rgb(5.264282%, 9.197998%, 88.246155%)" offset="0.710938"/><stop stop-opacity="1" stop-color="rgb(5.322266%, 8.953857%, 88.35144%)" offset="0.71875"/><stop stop-opacity="1" stop-color="rgb(5.380249%, 8.708191%, 88.4552%)" offset="0.726562"/><stop stop-opacity="1" stop-color="rgb(5.438232%, 8.46405%, 88.55896%)" offset="0.734375"/><stop stop-opacity="1" stop-color="rgb(5.497742%, 8.218384%, 88.664246%)" offset="0.742188"/><stop stop-opacity="1" stop-color="rgb(5.555725%, 7.974243%, 88.768005%)" offset="0.75"/><stop stop-opacity="1" stop-color="rgb(5.613708%, 7.728577%, 88.871765%)" offset="0.757813"/><stop stop-opacity="1" stop-color="rgb(5.671692%, 7.484436%, 88.975525%)" offset="0.765625"/><stop stop-opacity="1" stop-color="rgb(5.729675%, 7.23877%, 89.080811%)" offset="0.773438"/><stop stop-opacity="1" stop-color="rgb(5.787659%, 6.993103%, 89.18457%)" offset="0.78125"/><stop stop-opacity="1" stop-color="rgb(5.845642%, 6.748962%, 89.28833%)" offset="0.789062"/><stop stop-opacity="1" stop-color="rgb(5.903625%, 6.503296%, 89.39209%)" offset="0.796875"/><stop stop-opacity="1" stop-color="rgb(5.963135%, 6.259155%, 89.497375%)" offset="0.804688"/><stop stop-opacity="1" stop-color="rgb(6.021118%, 6.013489%, 89.601135%)" offset="0.8125"/><stop stop-opacity="1" stop-color="rgb(6.079102%, 5.769348%, 89.704895%)" offset="0.820312"/><stop stop-opacity="1" stop-color="rgb(6.137085%, 5.523682%, 89.810181%)" offset="0.828125"/><stop stop-opacity="1" stop-color="rgb(6.195068%, 5.279541%, 89.91394%)" offset="0.835938"/><stop stop-opacity="1" stop-color="rgb(6.253052%, 5.033875%, 90.0177%)" offset="0.84375"/><stop stop-opacity="1" stop-color="rgb(6.311035%, 4.789734%, 90.12146%)" offset="0.851562"/><stop stop-opacity="1" stop-color="rgb(6.369019%, 4.544067%, 90.226746%)" offset="0.859375"/><stop stop-opacity="1" stop-color="rgb(6.428528%, 4.298401%, 90.330505%)" offset="0.867188"/><stop stop-opacity="1" stop-color="rgb(6.486511%, 4.05426%, 90.434265%)" offset="0.875"/><stop stop-opacity="1" stop-color="rgb(6.544495%, 3.808594%, 90.538025%)" offset="0.882813"/><stop stop-opacity="1" stop-color="rgb(6.602478%, 3.564453%, 90.643311%)" offset="0.890625"/><stop stop-opacity="1" stop-color="rgb(6.660461%, 3.318787%, 90.74707%)" offset="0.898438"/><stop stop-opacity="1" stop-color="rgb(6.718445%, 3.074646%, 90.85083%)" offset="0.90625"/><stop stop-opacity="1" stop-color="rgb(6.776428%, 2.828979%, 90.956116%)" offset="0.914062"/><stop stop-opacity="1" stop-color="rgb(6.834412%, 2.584839%, 91.059875%)" offset="0.921875"/><stop stop-opacity="1" stop-color="rgb(6.893921%, 2.339172%, 91.163635%)" offset="0.929688"/><stop stop-opacity="1" stop-color="rgb(6.951904%, 2.095032%, 91.267395%)" offset="0.9375"/><stop stop-opacity="1" stop-color="rgb(7.009888%, 1.849365%, 91.372681%)" offset="0.945312"/><stop stop-opacity="1" stop-color="rgb(7.067871%, 1.603699%, 91.47644%)" offset="0.953125"/><stop stop-opacity="1" stop-color="rgb(7.125854%, 1.359558%, 91.5802%)" offset="0.960938"/><stop stop-opacity="1" stop-color="rgb(7.183838%, 1.113892%, 91.68396%)" offset="0.96875"/><stop stop-opacity="1" stop-color="rgb(7.241821%, 0.869751%, 91.789246%)" offset="0.976562"/><stop stop-opacity="1" stop-color="rgb(7.299805%, 0.624084%, 91.893005%)" offset="0.984375"/><stop stop-opacity="1" stop-color="rgb(7.359314%, 0.379944%, 91.996765%)" offset="0.992187"/><stop stop-opacity="1" stop-color="rgb(7.417297%, 0.134277%, 92.102051%)" offset="1"/></linearGradient><clipPath id="0c2da90c28"><rect x="0" width="290" y="0" height="88"/></clipPath><clipPath id="d1e48cf1f3"><path d="M 27.253906 26.828125 L 316.738281 26.828125 L 316.738281 113.382812 L 27.253906 113.382812 Z M 27.253906 26.828125 " clip-rule="nonzero"/></clipPath><clipPath id="ffb9ec910d"><path d="M 36.253906 26.828125 L 307.738281 26.828125 C 310.125 26.828125 312.414062 27.777344 314.101562 29.464844 C 315.789062 31.152344 316.738281 33.441406 316.738281 35.828125 L 316.738281 104.164062 C 316.738281 106.550781 315.789062 108.839844 314.101562 110.527344 C 312.414062 112.214844 310.125 113.164062 307.738281 113.164062 L 36.253906 113.164062 C 33.867188 113.164062 31.578125 112.214844 29.890625 110.527344 C 28.203125 108.839844 27.253906 106.550781 27.253906 104.164062 L 27.253906 35.828125 C 27.253906 33.441406 28.203125 31.152344 29.890625 29.464844 C 31.578125 27.777344 33.867188 26.828125 36.253906 26.828125 Z M 36.253906 26.828125 " clip-rule="nonzero"/></clipPath><linearGradient x1="0.000000000000056843" gradientTransform="matrix(5.062075, 0, 0, 5.062075, -0.000000000000213163, -0.00000000000007816)" y1="14.581" x2="97.782942" gradientUnits="userSpaceOnUse" y2="14.581" id="0fa12716eb"><stop stop-opacity="1" stop-color="rgb(94.898987%, 79.60968%, 1.959229%)" offset="0"/><stop stop-opacity="1" stop-color="rgb(94.93866%, 79.737854%, 1.94397%)" offset="0.015625"/><stop stop-opacity="1" stop-color="rgb(95.018005%, 79.994202%, 1.913452%)" offset="0.03125"/><stop stop-opacity="1" stop-color="rgb(95.098877%, 80.252075%, 1.882935%)" offset="0.046875"/><stop stop-opacity="1" stop-color="rgb(95.178223%, 80.509949%, 1.852417%)" offset="0.0625"/><stop stop-opacity="1" stop-color="rgb(95.257568%, 80.766296%, 1.821899%)" offset="0.078125"/><stop stop-opacity="1" stop-color="rgb(95.336914%, 81.02417%, 1.791382%)" offset="0.09375"/><stop stop-opacity="1" stop-color="rgb(95.417786%, 81.282043%, 1.760864%)" offset="0.109375"/><stop stop-opacity="1" stop-color="rgb(95.497131%, 81.538391%, 1.728821%)" offset="0.125"/><stop stop-opacity="1" stop-color="rgb(95.576477%, 81.796265%, 1.698303%)" offset="0.140625"/><stop stop-opacity="1" stop-color="rgb(95.655823%, 82.054138%, 1.667786%)" offset="0.15625"/><stop stop-opacity="1" stop-color="rgb(95.735168%, 82.310486%, 1.637268%)" offset="0.171875"/><stop stop-opacity="1" stop-color="rgb(95.81604%, 82.568359%, 1.60675%)" offset="0.1875"/><stop stop-opacity="1" stop-color="rgb(95.895386%, 82.826233%, 1.576233%)" offset="0.203125"/><stop stop-opacity="1" stop-color="rgb(95.974731%, 83.082581%, 1.545715%)" offset="0.21875"/><stop stop-opacity="1" stop-color="rgb(96.054077%, 83.340454%, 1.515198%)" offset="0.234375"/><stop stop-opacity="1" stop-color="rgb(96.134949%, 83.598328%, 1.48468%)" offset="0.25"/><stop stop-opacity="1" stop-color="rgb(96.214294%, 83.854675%, 1.454163%)" offset="0.265625"/><stop stop-opacity="1" stop-color="rgb(96.29364%, 84.112549%, 1.423645%)" offset="0.28125"/><stop stop-opacity="1" stop-color="rgb(96.372986%, 84.368896%, 1.393127%)" offset="0.296875"/><stop stop-opacity="1" stop-color="rgb(96.452332%, 84.62677%, 1.36261%)" offset="0.3125"/><stop stop-opacity="1" stop-color="rgb(96.533203%, 84.884644%, 1.332092%)" offset="0.328125"/><stop stop-opacity="1" stop-color="rgb(96.612549%, 85.140991%, 1.300049%)" offset="0.34375"/><stop stop-opacity="1" stop-color="rgb(96.691895%, 85.398865%, 1.269531%)" offset="0.359375"/><stop stop-opacity="1" stop-color="rgb(96.77124%, 85.656738%, 1.239014%)" offset="0.375"/><stop stop-opacity="1" stop-color="rgb(96.852112%, 85.913086%, 1.208496%)" offset="0.390625"/><stop stop-opacity="1" stop-color="rgb(96.931458%, 86.170959%, 1.177979%)" offset="0.40625"/><stop stop-opacity="1" stop-color="rgb(97.010803%, 86.428833%, 1.147461%)" offset="0.421875"/><stop stop-opacity="1" stop-color="rgb(97.090149%, 86.685181%, 1.116943%)" offset="0.4375"/><stop stop-opacity="1" stop-color="rgb(97.169495%, 86.943054%, 1.086426%)" offset="0.453125"/><stop stop-opacity="1" stop-color="rgb(97.250366%, 87.200928%, 1.055908%)" offset="0.46875"/><stop stop-opacity="1" stop-color="rgb(97.329712%, 87.457275%, 1.025391%)" offset="0.484375"/><stop stop-opacity="1" stop-color="rgb(97.409058%, 87.715149%, 0.994873%)" offset="0.5"/><stop stop-opacity="1" stop-color="rgb(97.488403%, 87.973022%, 0.964355%)" offset="0.515625"/><stop stop-opacity="1" stop-color="rgb(97.569275%, 88.22937%, 0.933838%)" offset="0.53125"/><stop stop-opacity="1" stop-color="rgb(97.648621%, 88.487244%, 0.90332%)" offset="0.546875"/><stop stop-opacity="1" stop-color="rgb(97.727966%, 88.745117%, 0.871277%)" offset="0.5625"/><stop stop-opacity="1" stop-color="rgb(97.807312%, 89.001465%, 0.840759%)" offset="0.578125"/><stop stop-opacity="1" stop-color="rgb(97.886658%, 89.259338%, 0.810242%)" offset="0.59375"/><stop stop-opacity="1" stop-color="rgb(97.967529%, 89.517212%, 0.779724%)" offset="0.609375"/><stop stop-opacity="1" stop-color="rgb(98.046875%, 89.77356%, 0.749207%)" offset="0.625"/><stop stop-opacity="1" stop-color="rgb(98.126221%, 90.031433%, 0.718689%)" offset="0.640625"/><stop stop-opacity="1" stop-color="rgb(98.205566%, 90.287781%, 0.688171%)" offset="0.65625"/><stop stop-opacity="1" stop-color="rgb(98.286438%, 90.545654%, 0.657654%)" offset="0.671875"/><stop stop-opacity="1" stop-color="rgb(98.365784%, 90.803528%, 0.627136%)" offset="0.6875"/><stop stop-opacity="1" stop-color="rgb(98.445129%, 91.059875%, 0.596619%)" offset="0.703125"/><stop stop-opacity="1" stop-color="rgb(98.524475%, 91.317749%, 0.566101%)" offset="0.71875"/><stop stop-opacity="1" stop-color="rgb(98.603821%, 91.575623%, 0.535583%)" offset="0.734375"/><stop stop-opacity="1" stop-color="rgb(98.684692%, 91.83197%, 0.505066%)" offset="0.75"/><stop stop-opacity="1" stop-color="rgb(98.764038%, 92.089844%, 0.474548%)" offset="0.765625"/><stop stop-opacity="1" stop-color="rgb(98.843384%, 92.347717%, 0.442505%)" offset="0.78125"/><stop stop-opacity="1" stop-color="rgb(98.922729%, 92.604065%, 0.411987%)" offset="0.796875"/><stop stop-opacity="1" stop-color="rgb(99.003601%, 92.861938%, 0.38147%)" offset="0.8125"/><stop stop-opacity="1" stop-color="rgb(99.082947%, 93.119812%, 0.350952%)" offset="0.828125"/><stop stop-opacity="1" stop-color="rgb(99.162292%, 93.37616%, 0.320435%)" offset="0.84375"/><stop stop-opacity="1" stop-color="rgb(99.241638%, 93.634033%, 0.289917%)" offset="0.859375"/><stop stop-opacity="1" stop-color="rgb(99.320984%, 93.891907%, 0.259399%)" offset="0.875"/><stop stop-opacity="1" stop-color="rgb(99.401855%, 94.148254%, 0.228882%)" offset="0.890625"/><stop stop-opacity="1" stop-color="rgb(99.481201%, 94.406128%, 0.198364%)" offset="0.90625"/><stop stop-opacity="1" stop-color="rgb(99.560547%, 94.664001%, 0.167847%)" offset="0.921875"/><stop stop-opacity="1" stop-color="rgb(99.639893%, 94.920349%, 0.137329%)" offset="0.9375"/><stop stop-opacity="1" stop-color="rgb(99.720764%, 95.178223%, 0.106812%)" offset="0.953125"/><stop stop-opacity="1" stop-color="rgb(99.80011%, 95.436096%, 0.0762939%)" offset="0.96875"/><stop stop-opacity="1" stop-color="rgb(99.879456%, 95.692444%, 0.0457764%)" offset="0.984375"/><stop stop-opacity="1" stop-color="rgb(99.958801%, 95.950317%, 0.0152588%)" offset="1"/></linearGradient><clipPath id="1192e82989"><path d="M 287.871094 86.53125 L 303.074219 86.53125 L 303.074219 101.738281 L 287.871094 101.738281 Z M 287.871094 86.53125 " clip-rule="nonzero"/></clipPath><clipPath id="9bfedf2361"><rect x="0" width="342" y="0" height="140"/></clipPath></defs><g transform="matrix(1, 0, 0, 1, 548, 335)"><g clip-path="url(#9bfedf2361)"><g clip-path="url(#0963aa4994)"><g clip-path="url(#8458d65a15)"><g transform="matrix(1, 0, 0, 1, 27, 26)"><g clip-path="url(#0c2da90c28)"><g clip-path="url(#a86b8e451d)"><g clip-path="url(#f8c1c25ab1)"><path fill="url(#d197fe13b1)" d="M 0.246094 0.828125 L 0.246094 87.171875 L 289.628906 87.171875 L 289.628906 0.828125 Z M 0.246094 0.828125 " fill-rule="nonzero"/></g></g></g></g></g></g><g clip-path="url(#d1e48cf1f3)"><g clip-path="url(#ffb9ec910d)"><path stroke-linecap="butt" transform="matrix(0.58483, 0, 0, 0.58483, 27.255837, 26.828596)" fill="none" stroke-linejoin="miter" d="M 15.385787 -0.000804741 L 479.596558 -0.000804741 C 483.677605 -0.000804741 487.59167 1.622263 490.477124 4.507717 C 493.362578 7.393171 494.985646 11.307236 494.985646 15.388283 L 494.985646 132.235812 C 494.985646 136.316859 493.362578 140.230924 490.477124 143.116378 C 487.59167 146.001832 483.677605 147.6249 479.596558 147.6249 L 15.385787 147.6249 C 11.30474 147.6249 7.390675 146.001832 4.505221 143.116378 C 1.619767 140.230924 -0.00330077 136.316859 -0.00330077 132.235812 L -0.00330077 15.388283 C -0.00330077 11.307236 1.619767 7.393171 4.505221 4.507717 C 7.390675 1.622263 11.30474 -0.000804741 15.385787 -0.000804741 Z M 15.385787 -0.000804741 " stroke="url(#0fa12716eb)" stroke-width="20.518782" stroke-miterlimit="4"/></g></g><path fill="#ffffff" d="M 296.726562 92.804688 C 296.726562 93.015625 296.679688 93.199219 296.585938 93.359375 C 296.496094 93.511719 296.324219 93.636719 296.082031 93.730469 C 295.945312 93.78125 295.773438 93.820312 295.574219 93.847656 C 295.367188 93.871094 295.113281 93.886719 294.820312 93.886719 L 294.261719 93.886719 L 294.261719 91.867188 L 295.109375 91.867188 C 295.382812 91.867188 295.613281 91.878906 295.800781 91.90625 C 295.980469 91.929688 296.128906 91.972656 296.25 92.023438 C 296.421875 92.101562 296.546875 92.207031 296.617188 92.335938 C 296.6875 92.472656 296.726562 92.628906 296.726562 92.804688 Z M 296.601562 94.9375 C 297.144531 94.761719 297.554688 94.503906 297.824219 94.164062 C 298.113281 93.800781 298.257812 93.351562 298.257812 92.832031 C 298.257812 92.335938 298.136719 91.917969 297.898438 91.585938 C 297.660156 91.257812 297.316406 91.003906 296.878906 90.835938 C 296.652344 90.753906 296.378906 90.6875 296.058594 90.648438 C 295.746094 90.605469 295.402344 90.585938 295.039062 90.585938 L 292.765625 90.585938 L 292.765625 97.945312 L 294.261719 97.945312 L 294.261719 95.167969 L 295.023438 95.167969 L 296.980469 97.945312 L 298.78125 97.945312 L 296.601562 94.9375 " fill-opacity="1" fill-rule="nonzero"/><g clip-path="url(#1192e82989)"><path fill="#ffffff" d="M 295.597656 87.789062 C 292.03125 87.789062 289.128906 90.691406 289.128906 94.257812 C 289.128906 97.824219 292.03125 100.722656 295.597656 100.722656 C 299.160156 100.722656 302.0625 97.824219 302.0625 94.257812 C 302.0625 90.691406 299.160156 87.789062 295.597656 87.789062 Z M 295.597656 101.984375 C 294.554688 101.984375 293.542969 101.777344 292.589844 101.375 C 291.667969 100.988281 290.84375 100.429688 290.132812 99.722656 C 289.421875 99.011719 288.867188 98.183594 288.476562 97.265625 C 288.074219 96.3125 287.871094 95.300781 287.871094 94.257812 C 287.871094 93.214844 288.074219 92.203125 288.476562 91.25 C 288.867188 90.328125 289.421875 89.503906 290.132812 88.792969 C 290.84375 88.085938 291.667969 87.527344 292.589844 87.136719 C 293.542969 86.734375 294.554688 86.53125 295.597656 86.53125 C 296.640625 86.53125 297.652344 86.734375 298.605469 87.136719 C 299.523438 87.527344 300.351562 88.085938 301.058594 88.792969 C 301.769531 89.503906 302.324219 90.328125 302.714844 91.25 C 303.117188 92.203125 303.324219 93.214844 303.324219 94.257812 C 303.324219 95.300781 303.117188 96.3125 302.714844 97.265625 C 302.324219 98.183594 301.769531 99.011719 301.058594 99.722656 C 300.351562 100.429688 299.523438 100.988281 298.605469 101.375 C 297.652344 101.777344 296.640625 101.984375 295.597656 101.984375 " fill-opacity="1" fill-rule="nonzero"/></g><g fill="#ffffff" fill-opacity="1"><g transform="translate(62.293198, 78.38282)"><g><path d="M 9.234375 -33.1875 L 9.234375 0 L 4.78125 0 L 4.78125 -33.1875 Z M 9.234375 -33.1875 "/></g></g></g><g fill="#ffffff" fill-opacity="1"><g transform="translate(76.292691, 78.38282)"><g><path d="M 33.6875 -33.1875 L 33.6875 1.109375 L 33.5625 1.109375 L 9.1875 -23.640625 L 9.265625 0 L 4.78125 0 L 4.78125 -34.203125 L 5 -34.203125 L 29.328125 -9.1875 L 29.25 -33.1875 Z M 33.6875 -33.1875 "/></g></g></g><g fill="#ffffff" fill-opacity="1"><g transform="translate(114.756862, 78.38282)"><g><path d="M 2.703125 -16.578125 C 2.703125 -19.597656 3.46875 -22.410156 5 -25.015625 C 6.53125 -27.617188 8.585938 -29.691406 11.171875 -31.234375 C 13.765625 -32.785156 16.585938 -33.5625 19.640625 -33.5625 C 22.671875 -33.5625 25.488281 -32.785156 28.09375 -31.234375 C 30.695312 -29.691406 32.769531 -27.617188 34.3125 -25.015625 C 35.863281 -22.410156 36.640625 -19.597656 36.640625 -16.578125 C 36.640625 -13.515625 35.875 -10.679688 34.34375 -8.078125 C 32.8125 -5.472656 30.734375 -3.410156 28.109375 -1.890625 C 25.492188 -0.378906 22.671875 0.375 19.640625 0.375 C 16.585938 0.375 13.757812 -0.375 11.15625 -1.875 C 8.550781 -3.375 6.488281 -5.414062 4.96875 -8 C 3.457031 -10.59375 2.703125 -13.453125 2.703125 -16.578125 Z M 7.296875 -16.53125 C 7.296875 -14.257812 7.847656 -12.160156 8.953125 -10.234375 C 10.054688 -8.304688 11.5625 -6.773438 13.46875 -5.640625 C 15.382812 -4.515625 17.472656 -3.953125 19.734375 -3.953125 C 22.003906 -3.953125 24.078125 -4.507812 25.953125 -5.625 C 27.835938 -6.738281 29.320312 -8.265625 30.40625 -10.203125 C 31.5 -12.148438 32.046875 -14.273438 32.046875 -16.578125 C 32.046875 -18.867188 31.492188 -20.992188 30.390625 -22.953125 C 29.285156 -24.910156 27.785156 -26.453125 25.890625 -27.578125 C 23.992188 -28.710938 21.910156 -29.28125 19.640625 -29.28125 C 17.378906 -29.28125 15.300781 -28.707031 13.40625 -27.5625 C 11.507812 -26.414062 10.015625 -24.863281 8.921875 -22.90625 C 7.835938 -20.945312 7.296875 -18.820312 7.296875 -16.53125 Z M 7.296875 -16.53125 "/></g></g></g><g fill="#ffffff" fill-opacity="1"><g transform="translate(154.093139, 78.38282)"><g><path d="M 31.171875 -33.1875 L 16.53125 1.5625 L 1.875 -33.1875 L 7.15625 -33.1875 L 16.703125 -9.265625 L 25.9375 -33.1875 Z M 31.171875 -33.1875 "/></g></g></g><g fill="#ffffff" fill-opacity="1"><g transform="translate(187.095215, 78.38282)"><g><path d="M 2.703125 -16.578125 C 2.703125 -19.597656 3.46875 -22.410156 5 -25.015625 C 6.53125 -27.617188 8.585938 -29.691406 11.171875 -31.234375 C 13.765625 -32.785156 16.585938 -33.5625 19.640625 -33.5625 C 22.671875 -33.5625 25.488281 -32.785156 28.09375 -31.234375 C 30.695312 -29.691406 32.769531 -27.617188 34.3125 -25.015625 C 35.863281 -22.410156 36.640625 -19.597656 36.640625 -16.578125 C 36.640625 -13.515625 35.875 -10.679688 34.34375 -8.078125 C 32.8125 -5.472656 30.734375 -3.410156 28.109375 -1.890625 C 25.492188 -0.378906 22.671875 0.375 19.640625 0.375 C 16.585938 0.375 13.757812 -0.375 11.15625 -1.875 C 8.550781 -3.375 6.488281 -5.414062 4.96875 -8 C 3.457031 -10.59375 2.703125 -13.453125 2.703125 -16.578125 Z M 7.296875 -16.53125 C 7.296875 -14.257812 7.847656 -12.160156 8.953125 -10.234375 C 10.054688 -8.304688 11.5625 -6.773438 13.46875 -5.640625 C 15.382812 -4.515625 17.472656 -3.953125 19.734375 -3.953125 C 22.003906 -3.953125 24.078125 -4.507812 25.953125 -5.625 C 27.835938 -6.738281 29.320312 -8.265625 30.40625 -10.203125 C 31.5 -12.148438 32.046875 -14.273438 32.046875 -16.578125 C 32.046875 -18.867188 31.492188 -20.992188 30.390625 -22.953125 C 29.285156 -24.910156 27.785156 -26.453125 25.890625 -27.578125 C 23.992188 -28.710938 21.910156 -29.28125 19.640625 -29.28125 C 17.378906 -29.28125 15.300781 -28.707031 13.40625 -27.5625 C 11.507812 -26.414062 10.015625 -24.863281 8.921875 -22.90625 C 7.835938 -20.945312 7.296875 -18.820312 7.296875 -16.53125 Z M 7.296875 -16.53125 "/></g></g></g><g fill="#ffffff" fill-opacity="1"><g transform="translate(226.431492, 78.38282)"><g><path d="M 9.234375 -33.1875 L 9.234375 -4.3125 L 26.125 -4.3125 L 26.125 0 L 4.78125 0 L 4.78125 -33.1875 Z M 9.234375 -33.1875 "/></g></g></g><g fill="#ffffff" fill-opacity="1"><g transform="translate(254.981271, 78.38282)"><g><path d="M 24.375 -33.1875 L 24.375 -28.921875 L 15.46875 -28.921875 L 15.46875 0 L 11.015625 0 L 11.015625 -28.921875 L 2.34375 -28.921875 L 2.34375 -33.1875 Z M 24.375 -33.1875 "/></g></g></g><g fill="#f2cb05" fill-opacity="1"><g transform="translate(118.989101, 96.836105)"><g><path d="M 7.390625 -9.234375 L 7.390625 -7.8125 L 2.75 -7.8125 L 2.75 -5.359375 L 6.890625 -5.359375 L 6.890625 -3.9375 L 2.75 -3.9375 L 2.75 -1.421875 L 7.578125 -1.421875 L 7.578125 0 L 1.265625 0 L 1.265625 -9.234375 Z M 7.390625 -9.234375 "/></g></g></g><g fill="#f2cb05" fill-opacity="1"><g transform="translate(127.33485, 96.836105)"><g><path d="M 9.421875 -9.234375 L 9.421875 0.328125 L 9.390625 0.328125 L 2.734375 -6.125 L 2.765625 0 L 1.265625 0 L 1.265625 -9.546875 L 1.34375 -9.546875 L 7.984375 -3.015625 L 7.953125 -9.234375 Z M 9.421875 -9.234375 "/></g></g></g><g fill="#f2cb05" fill-opacity="1"><g transform="translate(138.03973, 96.836105)"><g><path d="M 7.390625 -9.234375 L 7.390625 -7.8125 L 2.75 -7.8125 L 2.75 -5.359375 L 6.890625 -5.359375 L 6.890625 -3.9375 L 2.75 -3.9375 L 2.75 -1.421875 L 7.578125 -1.421875 L 7.578125 0 L 1.265625 0 L 1.265625 -9.234375 Z M 7.390625 -9.234375 "/></g></g></g><g fill="#f2cb05" fill-opacity="1"><g transform="translate(146.385479, 96.836105)"><g><path d="M 6.3125 0 L 4.234375 -3.203125 L 2.75 -3.203125 L 2.75 0 L 1.265625 0 L 1.265625 -9.234375 L 3.875 -9.234375 C 4.90625 -9.234375 5.726562 -8.96875 6.34375 -8.4375 C 6.96875 -7.914062 7.28125 -7.191406 7.28125 -6.265625 C 7.28125 -5.703125 7.160156 -5.175781 6.921875 -4.6875 C 6.679688 -4.195312 6.300781 -3.820312 5.78125 -3.5625 L 8.03125 0 Z M 2.75 -4.625 L 4.078125 -4.625 C 4.660156 -4.625 5.085938 -4.785156 5.359375 -5.109375 C 5.628906 -5.441406 5.765625 -5.8125 5.765625 -6.21875 C 5.765625 -6.457031 5.710938 -6.695312 5.609375 -6.9375 C 5.503906 -7.175781 5.328125 -7.378906 5.078125 -7.546875 C 4.835938 -7.722656 4.519531 -7.8125 4.125 -7.8125 L 2.75 -7.8125 Z M 2.75 -4.625 "/></g></g></g><g fill="#f2cb05" fill-opacity="1"><g transform="translate(154.883424, 96.836105)"><g><path d="M 8.609375 -0.84375 C 8.359375 -0.613281 7.914062 -0.398438 7.28125 -0.203125 C 6.65625 -0.00390625 6.082031 0.09375 5.5625 0.09375 C 4.582031 0.09375 3.722656 -0.0976562 2.984375 -0.484375 C 2.253906 -0.867188 1.691406 -1.398438 1.296875 -2.078125 C 0.898438 -2.765625 0.703125 -3.539062 0.703125 -4.40625 C 0.703125 -5.445312 0.914062 -6.335938 1.34375 -7.078125 C 1.769531 -7.828125 2.34375 -8.390625 3.0625 -8.765625 C 3.789062 -9.148438 4.582031 -9.34375 5.4375 -9.34375 C 5.976562 -9.34375 6.484375 -9.28125 6.953125 -9.15625 C 7.429688 -9.03125 7.851562 -8.867188 8.21875 -8.671875 L 7.734375 -7.296875 C 7.484375 -7.453125 7.148438 -7.582031 6.734375 -7.6875 C 6.316406 -7.800781 5.953125 -7.859375 5.640625 -7.859375 C 4.578125 -7.859375 3.738281 -7.566406 3.125 -6.984375 C 2.519531 -6.398438 2.21875 -5.582031 2.21875 -4.53125 C 2.21875 -3.90625 2.359375 -3.351562 2.640625 -2.875 C 2.929688 -2.394531 3.332031 -2.023438 3.84375 -1.765625 C 4.351562 -1.503906 4.9375 -1.375 5.59375 -1.375 C 5.894531 -1.375 6.175781 -1.398438 6.4375 -1.453125 C 6.707031 -1.503906 6.9375 -1.582031 7.125 -1.6875 L 7.125 -3.21875 L 5.390625 -3.21875 L 5.390625 -4.640625 L 8.609375 -4.640625 Z M 8.609375 -0.84375 "/></g></g></g><g fill="#f2cb05" fill-opacity="1"><g transform="translate(164.472151, 96.836105)"><g><path d="M 2.75 -9.234375 L 2.75 0 L 1.265625 0 L 1.265625 -9.234375 Z M 2.75 -9.234375 "/></g></g></g><g fill="#f2cb05" fill-opacity="1"><g transform="translate(168.492822, 96.836105)"><g><path d="M 6.015625 -2.171875 L 2.65625 -2.171875 L 1.765625 0 L 0.296875 0 L 4.390625 -9.609375 L 4.484375 -9.609375 L 8.5625 0 L 6.859375 0 Z M 5.515625 -3.4375 L 4.359375 -6.359375 L 3.171875 -3.4375 Z M 5.515625 -3.4375 "/></g></g></g><g fill="#f2cb05" fill-opacity="1"><g transform="translate(177.358588, 96.836105)"><g/></g></g><g fill="#f2cb05" fill-opacity="1"><g transform="translate(181.417309, 96.836105)"><g><path d="M 6.109375 -7.359375 C 5.316406 -7.773438 4.613281 -7.984375 4 -7.984375 C 3.539062 -7.984375 3.175781 -7.878906 2.90625 -7.671875 C 2.644531 -7.472656 2.515625 -7.195312 2.515625 -6.84375 C 2.515625 -6.488281 2.679688 -6.195312 3.015625 -5.96875 C 3.347656 -5.738281 3.816406 -5.507812 4.421875 -5.28125 C 4.867188 -5.113281 5.253906 -4.925781 5.578125 -4.71875 C 5.910156 -4.519531 6.179688 -4.238281 6.390625 -3.875 C 6.609375 -3.519531 6.71875 -3.070312 6.71875 -2.53125 C 6.71875 -2.039062 6.59375 -1.597656 6.34375 -1.203125 C 6.09375 -0.804688 5.734375 -0.488281 5.265625 -0.25 C 4.804688 -0.0195312 4.257812 0.09375 3.625 0.09375 C 3.070312 0.09375 2.523438 0.0078125 1.984375 -0.15625 C 1.441406 -0.332031 0.957031 -0.570312 0.53125 -0.875 L 1.1875 -2.03125 C 1.5 -1.789062 1.867188 -1.59375 2.296875 -1.4375 C 2.722656 -1.28125 3.117188 -1.203125 3.484375 -1.203125 C 3.929688 -1.203125 4.320312 -1.3125 4.65625 -1.53125 C 5 -1.75 5.171875 -2.082031 5.171875 -2.53125 C 5.171875 -2.882812 5.03125 -3.175781 4.75 -3.40625 C 4.46875 -3.644531 4.070312 -3.863281 3.5625 -4.0625 C 3.039062 -4.257812 2.601562 -4.453125 2.25 -4.640625 C 1.90625 -4.828125 1.609375 -5.09375 1.359375 -5.4375 C 1.109375 -5.78125 0.984375 -6.207031 0.984375 -6.71875 C 0.984375 -7.476562 1.238281 -8.085938 1.75 -8.546875 C 2.269531 -9.003906 2.945312 -9.25 3.78125 -9.28125 C 4.382812 -9.28125 4.914062 -9.210938 5.375 -9.078125 C 5.84375 -8.941406 6.273438 -8.742188 6.671875 -8.484375 Z M 6.109375 -7.359375 "/></g></g></g><g fill="#f2cb05" fill-opacity="1"><g transform="translate(188.79911, 96.836105)"><g><path d="M 0.703125 -4.609375 C 0.703125 -5.453125 0.910156 -6.234375 1.328125 -6.953125 C 1.753906 -7.679688 2.328125 -8.257812 3.046875 -8.6875 C 3.773438 -9.125 4.566406 -9.34375 5.421875 -9.34375 C 6.265625 -9.34375 7.046875 -9.125 7.765625 -8.6875 C 8.492188 -8.257812 9.070312 -7.679688 9.5 -6.953125 C 9.9375 -6.222656 10.15625 -5.441406 10.15625 -4.609375 C 10.15625 -3.753906 9.941406 -2.96875 9.515625 -2.25 C 9.085938 -1.53125 8.507812 -0.957031 7.78125 -0.53125 C 7.050781 -0.113281 6.265625 0.09375 5.421875 0.09375 C 4.566406 0.09375 3.773438 -0.113281 3.046875 -0.53125 C 2.328125 -0.945312 1.753906 -1.515625 1.328125 -2.234375 C 0.910156 -2.953125 0.703125 -3.742188 0.703125 -4.609375 Z M 2.21875 -4.609375 C 2.21875 -4.003906 2.359375 -3.453125 2.640625 -2.953125 C 2.929688 -2.453125 3.320312 -2.050781 3.8125 -1.75 C 4.3125 -1.457031 4.859375 -1.3125 5.453125 -1.3125 C 6.035156 -1.3125 6.566406 -1.457031 7.046875 -1.75 C 7.535156 -2.039062 7.921875 -2.4375 8.203125 -2.9375 C 8.484375 -3.445312 8.625 -4.003906 8.625 -4.609375 C 8.625 -5.203125 8.476562 -5.753906 8.1875 -6.265625 C 7.90625 -6.773438 7.519531 -7.175781 7.03125 -7.46875 C 6.539062 -7.769531 6.003906 -7.921875 5.421875 -7.921875 C 4.828125 -7.921875 4.285156 -7.769531 3.796875 -7.46875 C 3.316406 -7.175781 2.929688 -6.773438 2.640625 -6.265625 C 2.359375 -5.753906 2.21875 -5.203125 2.21875 -4.609375 Z M 2.21875 -4.609375 "/></g></g></g><g fill="#f2cb05" fill-opacity="1"><g transform="translate(199.643504, 96.836105)"><g><path d="M 2.75 -9.234375 L 2.75 -1.421875 L 7.3125 -1.421875 L 7.3125 0 L 1.265625 0 L 1.265625 -9.234375 Z M 2.75 -9.234375 "/></g></g></g><g fill="#f2cb05" fill-opacity="1"><g transform="translate(207.634113, 96.836105)"><g><path d="M 6.015625 -2.171875 L 2.65625 -2.171875 L 1.765625 0 L 0.296875 0 L 4.390625 -9.609375 L 4.484375 -9.609375 L 8.5625 0 L 6.859375 0 Z M 5.515625 -3.4375 L 4.359375 -6.359375 L 3.171875 -3.4375 Z M 5.515625 -3.4375 "/></g></g></g><g fill="#f2cb05" fill-opacity="1"><g transform="translate(216.499879, 96.836105)"><g><path d="M 6.3125 0 L 4.234375 -3.203125 L 2.75 -3.203125 L 2.75 0 L 1.265625 0 L 1.265625 -9.234375 L 3.875 -9.234375 C 4.90625 -9.234375 5.726562 -8.96875 6.34375 -8.4375 C 6.96875 -7.914062 7.28125 -7.191406 7.28125 -6.265625 C 7.28125 -5.703125 7.160156 -5.175781 6.921875 -4.6875 C 6.679688 -4.195312 6.300781 -3.820312 5.78125 -3.5625 L 8.03125 0 Z M 2.75 -4.625 L 4.078125 -4.625 C 4.660156 -4.625 5.085938 -4.785156 5.359375 -5.109375 C 5.628906 -5.441406 5.765625 -5.8125 5.765625 -6.21875 C 5.765625 -6.457031 5.710938 -6.695312 5.609375 -6.9375 C 5.503906 -7.175781 5.328125 -7.378906 5.078125 -7.546875 C 4.835938 -7.722656 4.519531 -7.8125 4.125 -7.8125 L 2.75 -7.8125 Z M 2.75 -4.625 "/></g></g></g></g></g></svg>